# xmcd
#
# Track frame offsets:
#	150
#	20296
#	35292
#	49496
#	67243
#	83136
#	98023
#	117316
#	132310
#	150509
#	168325
#	183269
#	197256
#
# Disc length: 2819 seconds
# Revision: 1
# Processed by: cddbd v1.5.2PL0 Copyright (c) Steve Scherf et al.
# Submitted via: dBpowerAMP V12.0
#
DISCID=a30b010d
DTITLE=Graham Rodger - Stronger For It All
DYEAR=2012
DGENRE=Country
TTITLE0=Stronger For It All
TTITLE1=Beersheba
TTITLE2=Man Shy
TTITLE3=Looking Back
TTITLE4=Tinsel Grown
TTITLE5=Whoever Gets My Dog
TTITLE6=The Min Min Light
TTITLE7=The Old Coopers Note Book
TTITLE8=The Fence Off
TTITLE9=A Mug Of Billy Tea
TTITLE10=Old Bag Of Bones
TTITLE11=Darling Downs
TTITLE12=I Am
EXTD=
EXTT0=
EXTT1=
EXTT2=
EXTT3=
EXTT4=
EXTT5=
EXTT6=
EXTT7=
EXTT8=
EXTT9=
EXTT10=
EXTT11=
EXTT12=
PLAYORDER=
